<?xml version="1.0" encoding="UTF-8"?>
<svg version="1.1" xmlns="http://www.w3.org/2000/svg" width="236" height="236">
<path d="M0 0 C6.287726 3.43660655 10.99544408 8.74342647 15.9921875 13.796875 C16.94724328 14.75566659 17.90274578 15.71401338 18.8586731 16.67193604 C21.35863286 19.17948759 23.85252456 21.69298896 26.34515381 24.20782471 C28.8956999 26.77892576 31.45200347 29.34428867 34.0078125 31.91015625 C39.01082279 36.93453773 44.00743805 41.96523444 49 47 C42.74442981 54.38561539 42.74442981 54.38561539 39.5703125 57.52734375 C39.003125 58.09130859 38.4359375 58.65527344 37.8515625 59.23632812 C36.99691406 60.0784082 36.99691406 60.0784082 36.125 60.9375 C35.53203125 61.52595703 34.9390625 62.11441406 34.328125 62.72070312 C32.88773534 64.14947674 31.4442033 65.57508132 30 67 C25.33125463 63.10023279 20.90872191 59.04785356 16.62890625 54.7265625 C16.06171371 54.15795502 15.49452118 53.58934753 14.91014099 53.00350952 C13.12520087 51.21303764 11.34379744 49.41909516 9.5625 47.625 C8.34203061 46.39950677 7.12132947 45.17424428 5.90039062 43.94921875 C2.93091244 40.96880226 -0.03540257 37.98527106 -3 35 C-8.17656401 39.33008069 -13.01312589 43.87464499 -17.77124023 48.65771484 C-18.88468056 49.77093613 -18.88468056 49.77093613 -20.02061462 50.90664673 C-22.45232135 53.33904528 -24.88047539 55.77495733 -27.30859375 58.2109375 C-29.002309 59.90651952 -30.69624643 61.60187963 -32.39039612 63.29702759 C-36.83293779 67.743374 -41.2724672 72.19271615 -45.71136475 76.6427002 C-50.24780964 81.18940325 -54.78711252 85.73325102 -59.32617188 90.27734375 C-68.22023882 99.18211195 -77.11122192 108.08995258 -86 117 C-84.63441112 119.83374242 -83.35003769 121.89648438 -81.11083984 124.11621094 C-80.5303891 124.69651062 -79.94993835 125.2768103 -79.35189819 125.87469482 C-78.72788116 126.48838928 -78.10386414 127.10208374 -77.4609375 127.734375 C-76.82008209 128.37240051 -76.17922668 129.01042603 -75.51895142 129.66778564 C-73.47562179 131.69994069 -71.42544018 133.72502218 -69.375 135.75 C-67.9865214 137.1284453 -66.5984951 138.50734636 -65.2109375 139.88671875 C-61.81251303 143.26311894 -58.40792746 146.63319288 -55 150 C-56.4264578 153.2586636 -58.16704162 155.4024854 -60.6953125 157.890625 C-61.41074219 158.59960938 -62.12617187 159.30859375 -62.86328125 160.0390625 C-63.98283203 161.13347656 -63.98283203 161.13347656 -65.125 162.25 C-65.87910156 162.99507812 -66.63320312 163.74015625 -67.41015625 164.5078125 C-69.26900772 166.3431342 -71.13237005 168.1736191 -73 170 C-78.67077761 165.27710977 -83.92411317 160.23668944 -89.14453125 155.0234375 C-89.99552902 154.17576813 -90.84652679 153.32809875 -91.72331238 152.45474243 C-93.51045487 150.67263819 -95.29626609 148.88919801 -97.08081055 147.10449219 C-99.81603957 144.37146327 -102.5591828 141.64654611 -105.30273438 138.921875 C-107.04215566 137.18538552 -108.78110463 135.44842276 -110.51953125 133.7109375 C-111.75072441 132.49052261 -111.75072441 132.49052261 -113.00679016 131.24545288 C-113.76485458 130.48431183 -114.52291901 129.72317078 -115.30395508 128.93896484 C-115.97123123 128.27311371 -116.63850739 127.60726257 -117.32600403 126.92123413 C-120.00914106 123.84181546 -121.40682985 121.07724632 -121.26596069 116.94970703 C-120.24861164 109.91542216 -114.59351071 105.52953127 -109.74462891 100.8046875 C-108.65406141 99.7131015 -107.56524291 98.61976576 -106.4780426 97.52482605 C-103.53097587 94.56694994 -100.55978145 91.6344635 -97.5832715 88.70625687 C-94.47058605 85.63624073 -91.37986861 82.54425931 -88.28646851 79.45483398 C-83.09248421 74.27373022 -77.88395345 69.10764579 -72.66503906 63.95166016 C-65.96289053 57.33021839 -59.28390429 50.68592171 -52.61239052 44.03363037 C-46.87671337 38.31454394 -41.13212985 32.60442913 -35.38526869 26.89658356 C-34.15166399 25.671079 -32.91836891 24.4452627 -31.68537951 23.2191391 C-28.17323293 19.72655179 -24.65648129 16.23875399 -21.13158989 12.75902748 C-20.06363206 11.70332347 -18.99734226 10.64592907 -17.9328289 9.58675194 C-16.48252015 8.14439504 -15.02545278 6.70884341 -13.56802368 5.27368164 C-12.75353571 4.46774063 -11.93904774 3.66179962 -11.09987831 2.83143616 C-7.6249465 -0.19927078 -4.47156367 -0.43838859 0 0 Z " fill="#000000" transform="translate(121,0)"/>
<path d="M0 0 C3.47551023 1.49235323 5.72315293 3.47518789 8.38549805 6.14257812 C9.24286057 6.99686401 10.10022308 7.8511499 10.98356628 8.73132324 C11.9003566 9.65529907 12.81714691 10.5792749 13.76171875 11.53125 C14.7173117 12.48803569 15.6732753 13.44445131 16.6295929 14.4005127 C18.62898094 16.40146225 20.62497179 18.40571909 22.6184082 20.41259766 C25.17565024 22.9868635 27.73946031 25.55446292 30.30560589 28.11985016 C32.27812332 30.09263922 34.24802603 32.06802145 36.21705055 34.04429626 C37.62144939 35.45342917 39.02735336 36.86106149 40.43327332 38.26867676 C41.28117935 39.12296265 42.12908539 39.97724854 43.00268555 40.85742188 C43.7522905 41.61083862 44.50189545 42.36425537 45.2742157 43.14050293 C48.40858682 46.51772332 48.72285415 49.63692653 48.65256882 54.14054489 C47.27410282 60.18076861 42.16539568 64.21665349 37.87744141 68.41650391 C36.78814919 69.51935951 35.70099293 70.62432827 34.61581421 71.73123169 C31.6713776 74.72114104 28.69632237 77.67868753 25.71325731 80.62999773 C22.59055825 83.72731853 19.49239984 86.84903404 16.39022827 89.96688843 C11.17725648 95.19803612 5.94359442 100.40778563 0.69775391 105.60595703 C-5.36060115 111.60989134 -11.38208583 117.64900567 -17.38568246 123.70765746 C-22.54789028 128.91529531 -27.72939449 134.1031289 -32.92742407 139.27501237 C-36.02901809 142.36104304 -39.12352434 145.4533678 -42.20075607 148.56370926 C-45.09558712 151.48750284 -48.01393445 154.38560841 -50.95196152 157.26597214 C-52.02395207 158.3247789 -53.08759596 159.39211621 -54.14189911 160.46853638 C-63.09172601 169.58858792 -63.09172601 169.58858792 -69.46084595 169.81541443 C-75.16759788 169.39436612 -78.23779563 165.99150519 -82 162 C-83.49436402 160.53997553 -84.99053759 159.08180145 -86.48828125 157.62524414 C-88.09892323 156.01444624 -89.70689231 154.40097228 -91.3125 152.78515625 C-92.16682617 151.92941513 -93.02115234 151.07367401 -93.90136719 150.19200134 C-96.60328862 147.48452619 -99.30169359 144.77357746 -102 142.0625 C-103.84221577 140.21526325 -105.68466143 138.36825573 -107.52734375 136.52148438 C-112.02089061 132.01696997 -116.5115632 127.50960595 -121 123 C-118.69365285 118.19045661 -115.35780665 114.95212034 -111.625 111.1875 C-110.95210937 110.48173828 -110.27921875 109.77597656 -109.5859375 109.04882812 C-108.93109375 108.38689453 -108.27625 107.72496094 -107.6015625 107.04296875 C-107.00682129 106.43477295 -106.41208008 105.82657715 -105.79931641 105.19995117 C-104 104 -104 104 -102.08804321 104.24578857 C-99.70697152 105.10584332 -98.56409843 106.07279862 -96.79199219 107.86743164 C-95.89151154 108.76825218 -95.89151154 108.76825218 -94.97283936 109.68727112 C-94.33727112 110.33832321 -93.70170288 110.98937531 -93.046875 111.66015625 C-92.38665344 112.32462265 -91.72643188 112.98908905 -91.04620361 113.6736908 C-88.9403236 115.79635563 -86.84511672 117.92921605 -84.75 120.0625 C-83.32360768 121.50393934 -81.8965323 122.94470309 -80.46875 124.38476562 C-76.97119406 127.91538832 -73.48317435 131.45519053 -70 135 C-66.94224821 133.63415283 -64.84118809 132.08911635 -62.48187256 129.72238159 C-61.80324158 129.04649994 -61.1246106 128.37061829 -60.42541504 127.67425537 C-59.69173706 126.93338684 -58.95805908 126.19251831 -58.20214844 125.42919922 C-57.42127869 124.64862152 -56.64040894 123.86804382 -55.83587646 123.06381226 C-53.25560727 120.48214955 -50.68249478 117.89347442 -48.109375 115.3046875 C-46.32190835 113.51349081 -44.53399968 111.72273512 -42.7456665 109.93240356 C-38.52051369 105.70039428 -34.2998454 101.46396242 -30.08131623 97.22535431 C-25.27753114 92.39920285 -20.46805558 87.57873937 -15.65809584 82.75874305 C-5.76572333 72.84547392 4.11948887 62.92509034 14 53 C13.06518608 51.89853154 12.12878502 50.79840998 11.19174194 49.69883728 C10.67045904 49.08605895 10.14917614 48.47328062 9.61209679 47.84193325 C7.10665047 44.97928572 4.42840608 42.30481776 1.7265625 39.62890625 C1.15795502 39.06171371 0.58934753 38.49452118 0.00350952 37.91014099 C-1.78696236 36.12520087 -3.58090484 34.34379744 -5.375 32.5625 C-6.60049323 31.34203061 -7.82575572 30.12132947 -9.05078125 28.90039062 C-12.03119774 25.93091244 -15.01472894 22.96459743 -18 20 C-16.5735422 16.7413364 -14.83295838 14.5975146 -12.3046875 12.109375 C-11.58925781 11.40039062 -10.87382812 10.69140625 -10.13671875 9.9609375 C-9.39035156 9.23132813 -8.64398438 8.50171875 -7.875 7.75 C-7.12089844 7.00492187 -6.36679688 6.25984375 -5.58984375 5.4921875 C-3.73099228 3.6568658 -1.86762995 1.8263809 0 0 Z " fill="#000000" transform="translate(187,66)"/>
<path d="M0 0 C2.32964469 0.83191498 3.5076302 1.75772496 5.27919006 3.46989441 C5.87628281 4.04139221 6.47337555 4.61289001 7.08856201 5.20170593 C7.72099319 5.82452454 8.35342438 6.44734314 9.00502014 7.08903503 C9.66287003 7.73215637 10.32071991 8.37527771 10.99850464 9.03788757 C12.38687842 10.40231766 13.77103606 11.77104921 15.15126038 13.14372253 C17.25853578 15.22943332 19.39327467 17.28399218 21.53041077 19.33903503 C22.87791922 20.67054382 24.22368128 22.00382277 25.56752014 23.33903503 C26.20602402 23.94565979 26.84452789 24.55228455 27.50238037 25.17729187 C31.30661261 29.04029851 33.1200787 32.13126341 33.33377075 37.62953186 C32.61332755 43.8077255 26.80188269 48.2995541 22.57142639 52.45622253 C21.95559692 53.06922211 21.33976746 53.68222168 20.70527649 54.313797 C18.75388058 56.25407481 16.79561785 58.18724834 14.83705139 60.12028503 C13.50586088 61.44143493 12.17512688 62.76304498 10.84486389 64.08512878 C7.59751601 67.31052745 4.34399459 70.52957699 1.08705139 73.74528503 C-2.17161221 72.31882723 -4.31543401 70.57824342 -6.80357361 68.04997253 C-7.51255798 67.33454285 -8.22154236 66.61911316 -8.95201111 65.88200378 C-9.68162048 65.1356366 -10.41122986 64.38926941 -11.16294861 63.62028503 C-11.90802673 62.86618347 -12.65310486 62.11208191 -13.42076111 61.33512878 C-15.25608281 59.47627731 -17.0865677 57.61291499 -18.91294861 55.74528503 C-17.51947485 52.59323522 -15.88809781 50.4835673 -13.43638611 48.07341003 C-12.76607361 47.40954285 -12.09576111 46.74567566 -11.40513611 46.06169128 C-10.3571283 45.03882019 -10.3571283 45.03882019 -9.28794861 43.99528503 C-8.58154236 43.29790222 -7.87513611 42.60051941 -7.14732361 41.88200378 C-5.40696157 40.16516016 -3.6620988 38.45316671 -1.91294861 36.74528503 C-5.68925013 32.229562 -9.58904289 27.9325253 -13.78794861 23.80778503 C-14.28552673 23.31471863 -14.78310486 22.82165222 -15.29576111 22.31364441 C-16.49915146 21.12182512 -17.70570226 19.93319825 -18.91294861 18.74528503 C-16.7451555 13.9021865 -13.23185635 10.65817494 -9.53794861 6.93278503 C-8.86505798 6.22702332 -8.19216736 5.5212616 -7.49888611 4.79411316 C-6.84404236 4.13217957 -6.18919861 3.47024597 -5.51451111 2.78825378 C-4.9197699 2.18005798 -4.32502869 1.57186218 -3.71226501 0.94523621 C-1.91294861 -0.25471497 -1.91294861 -0.25471497 0 0 Z " fill="#000000" transform="translate(117.91294860839844,81.25471496582031)"/>
</svg>
